<?xml version="1.0" encoding="UTF-8" standalone="no"?>
<!-- Created with Inkscape (http://www.inkscape.org/) -->

<svg
   width="2048"
   height="2048"
   viewBox="0 0 541.86665 541.86666"
   version="1.1"
   id="svg1"
   sodipodi:docname="chart_background.svg"
   inkscape:version="1.4 (86a8ad7, 2024-10-11)"
   inkscape:export-filename="chart_background.png"
   inkscape:export-xdpi="96"
   inkscape:export-ydpi="96"
   xmlns:inkscape="http://www.inkscape.org/namespaces/inkscape"
   xmlns:sodipodi="http://sodipodi.sourceforge.net/DTD/sodipodi-0.dtd"
   xmlns="http://www.w3.org/2000/svg"
   xmlns:svg="http://www.w3.org/2000/svg">
  <sodipodi:namedview
     id="namedview1"
     pagecolor="#000000"
     bordercolor="#000000"
     borderopacity="0.25"
     inkscape:showpageshadow="2"
     inkscape:pageopacity="0.0"
     inkscape:pagecheckerboard="0"
     inkscape:deskcolor="#d1d1d1"
     inkscape:document-units="mm"
     inkscape:zoom="0.15734863"
     inkscape:cx="985.0737"
     inkscape:cy="1604.7168"
     inkscape:window-width="1314"
     inkscape:window-height="886"
     inkscape:window-x="666"
     inkscape:window-y="424"
     inkscape:window-maximized="0"
     inkscape:current-layer="layer1" />
  <defs
     id="defs1" />
  <g
     inkscape:label="图层 1"
     inkscape:groupmode="layer"
     id="layer1">
    <circle
       style="display:inline;fill:none;fill-opacity:1;stroke:#ffffff;stroke-width:2.05317;stroke-linecap:round;stroke-dasharray:none"
       id="path2"
       cx="270.93332"
       cy="270.93332"
       r="262.80533" />
    <path
       d="m 271.19843,239.49339 a 31.174807,31.174807 0 0 0 -31.17484,31.17484 31.174807,31.174807 0 0 0 31.17484,31.17484 31.174807,31.174807 0 0 0 31.17484,-31.17484 31.174807,31.174807 0 0 0 -31.17484,-31.17484 z m -0.2651,3.85196 a 27.322903,27.322903 0 0 1 27.32288,27.32288 27.322903,27.322903 0 0 1 -27.32288,27.32288 27.322903,27.322903 0 0 1 -27.32288,-27.32288 27.322903,27.322903 0 0 1 27.32288,-27.32288 z"
       style="display:inline;fill:#ffffff;stroke:#ffffff;stroke-width:0.754062;stroke-linecap:round"
       id="path10" />
    <path
       d="M 282.64321,13.843599 A 11.890073,11.890073 0 0 1 270.93333,25.059452 11.890073,11.890073 0 0 1 259.36556,14.3738 257.38666,257.38666 0 0 0 14.387236,259.18005 11.890073,11.890073 0 0 1 25.059452,270.93333 11.890073,11.890073 0 0 1 14.3738,282.5011 257.38666,257.38666 0 0 0 259.36556,527.49287 11.890073,11.890073 0 0 1 270.93333,516.8067 11.890073,11.890073 0 0 1 282.68662,527.47943 257.38666,257.38666 0 0 0 527.49287,282.5011 11.890073,11.890073 0 0 1 516.8067,270.93333 11.890073,11.890073 0 0 1 528.02307,259.22345 257.38666,257.38666 0 0 0 282.64321,13.843599 Z M 271.19843,231.55538 a 39.112926,39.112926 0 0 1 39.11286,39.11285 39.112926,39.112926 0 0 1 -39.11286,39.11286 39.112926,39.112926 0 0 1 -39.11285,-39.11286 39.112926,39.112926 0 0 1 39.11285,-39.11285 z"
       style="display:inline;fill:#ffffff;stroke:#ffffff;stroke-width:0.754062;stroke-linecap:round"
       id="path9" />
  </g>
</svg>
