<?xml version="1.0" encoding="UTF-8" standalone="no"?>
<!-- Created with Inkscape (http://www.inkscape.org/) -->

<svg
   width="2048"
   height="2048"
   viewBox="0 0 541.86665 541.86666"
   version="1.1"
   id="svg1"
   inkscape:version="1.4 (86a8ad7, 2024-10-11)"
   sodipodi:docname="songlist_background.svg"
   inkscape:export-filename="songlist_background.png"
   inkscape:export-xdpi="96"
   inkscape:export-ydpi="96"
   xmlns:inkscape="http://www.inkscape.org/namespaces/inkscape"
   xmlns:sodipodi="http://sodipodi.sourceforge.net/DTD/sodipodi-0.dtd"
   xmlns:xlink="http://www.w3.org/1999/xlink"
   xmlns="http://www.w3.org/2000/svg"
   xmlns:svg="http://www.w3.org/2000/svg">
  <sodipodi:namedview
     id="namedview1"
     pagecolor="#ffffff"
     bordercolor="#000000"
     borderopacity="0.25"
     inkscape:showpageshadow="2"
     inkscape:pageopacity="0.0"
     inkscape:pagecheckerboard="0"
     inkscape:deskcolor="#d1d1d1"
     inkscape:document-units="mm"
     inkscape:zoom="0.25"
     inkscape:cx="968"
     inkscape:cy="972"
     inkscape:window-width="1377"
     inkscape:window-height="885"
     inkscape:window-x="716"
     inkscape:window-y="577"
     inkscape:window-maximized="0"
     inkscape:current-layer="layer1" />
  <defs
     id="defs1">
    <linearGradient
       id="linearGradient35"
       inkscape:collect="always">
      <stop
         style="stop-color:#333333;stop-opacity:1;"
         offset="0"
         id="stop35" />
      <stop
         style="stop-color:#262626;stop-opacity:1;"
         offset="1"
         id="stop36" />
    </linearGradient>
    <linearGradient
       id="linearGradient29"
       inkscape:collect="always">
      <stop
         style="stop-color:#666666;stop-opacity:1;"
         offset="0"
         id="stop29" />
      <stop
         style="stop-color:#262626;stop-opacity:1;"
         offset="0.84018266"
         id="stop32" />
      <stop
         style="stop-color:#808080;stop-opacity:1;"
         offset="1"
         id="stop30" />
    </linearGradient>
    <linearGradient
       id="swatch7"
       inkscape:swatch="solid">
      <stop
         style="stop-color:#000000;stop-opacity:1;"
         offset="0"
         id="stop8" />
    </linearGradient>
    <linearGradient
       inkscape:collect="always"
       xlink:href="#linearGradient29"
       id="linearGradient30"
       x1="-7.2191141e-13"
       y1="-7.2191141e-13"
       x2="541.8667"
       y2="541.8667"
       gradientUnits="userSpaceOnUse"
       gradientTransform="matrix(0.67175144,0.67175144,-0.67175144,0.67175144,276.22502,-94.884091)" />
    <linearGradient
       inkscape:collect="always"
       xlink:href="#linearGradient35"
       id="linearGradient36"
       x1="7.6140055"
       y1="270.93333"
       x2="534.25266"
       y2="270.93333"
       gradientUnits="userSpaceOnUse"
       gradientTransform="matrix(0.67175144,0.67175144,-0.67175144,0.67175144,276.22502,-94.884091)" />
    <filter
       inkscape:collect="always"
       style="color-interpolation-filters:sRGB"
       id="filter41"
       x="-0.012"
       y="-0.012"
       width="1.024"
       height="1.024">
      <feGaussianBlur
         inkscape:collect="always"
         stdDeviation="2.7093334"
         id="feGaussianBlur41" />
    </filter>
  </defs>
  <g
     inkscape:label="图层 1"
     inkscape:groupmode="layer"
     id="layer1">
    <path
       d="M 454.41053,90.930105 C 450.09671,86.660764 443.55668,85.309524 437.3116,87.397298 392.94787,48.246581 335.84406,26.593078 276.6756,26.484788 217.50714,26.376504 160.32452,47.820836 115.81778,86.808902 c -5.77043,-1.017981 -11.97127,1.022229 -16.477897,5.42158 -4.399364,4.506646 -6.439568,10.707478 -5.421594,16.477908 -38.987922,44.50676 -60.432115,101.68909 -60.323765,160.85747 0.108358,59.16838 21.761842,116.27234 60.912513,160.636 -2.087994,6.24513 -0.736883,12.78532 3.532458,17.09928 4.313935,4.26939 10.854155,5.62045 17.099295,3.53247 44.36371,39.15071 101.46754,60.80422 160.63599,60.91251 59.16846,0.10829 116.35108,-21.33606 160.85782,-60.32412 5.77027,1.01796 11.97094,-1.02211 16.47756,-5.42124 4.28458,-4.32036 6.39265,-10.254 5.64479,-15.88882 39.31102,-44.58227 60.95319,-102.00606 60.8462,-161.44447 -0.10697,-59.4384 -21.95572,-116.78426 -61.42696,-161.22473 1.8083,-6.08857 0.3806,-12.352465 -3.76366,-16.512635 z m -3.54948,3.549478 a 5.0344842,5.0344842 0 0 1 0,7.119787 5.0344842,5.0344842 0 0 1 -7.11979,0 5.0344842,5.0344842 0 0 1 10e-6,-7.119782 5.0344842,5.0344842 0 0 1 7.11978,-5e-6 z m -340.85191,1.300381 a 5.0344842,5.0344842 0 0 1 0,7.119776 5.0344842,5.0344842 0 0 1 -7.11978,0 5.0344842,5.0344842 0 0 1 0,-7.119781 5.0344842,5.0344842 0 0 1 7.11978,5e-6 z M 449.56067,435.3315 a 5.0344842,5.0344842 0 0 1 10e-6,7.11978 5.0344842,5.0344842 0 0 1 -7.11979,0 5.0344842,5.0344842 0 0 1 0,-7.11979 5.0344842,5.0344842 0 0 1 7.11978,1e-5 z m -340.85191,1.30037 a 5.0344842,5.0344842 0 0 1 0,7.11979 5.0344842,5.0344842 0 0 1 -7.11979,0 5.0344842,5.0344842 0 0 1 1e-5,-7.11978 5.0344842,5.0344842 0 0 1 7.11978,-1e-5 z"
       style="display:inline;fill:url(#linearGradient36);stroke-width:1.00541;stroke-linecap:round"
       id="path35" />
    <path
       d="M 276.225,5.2916667 A 270.93332,270.93332 0 0 0 5.2916667,276.225 270.93332,270.93332 0 0 0 276.225,547.15834 270.93332,270.93332 0 0 0 547.15834,276.225 270.93332,270.93332 0 0 0 276.225,5.2916667 Z m 0,5.6782103 a 17.647205,19.582638 0 0 1 15.09211,9.48934 256.25562,256.25562 0 0 1 240.60236,239.737823 17.647205,19.582638 0 0 1 7.62486,16.02796 17.647205,19.582638 0 0 1 -8.22947,16.29978 A 256.25562,256.25562 0 0 1 291.58169,531.38204 17.647205,19.582638 0 0 1 276.225,541.48013 17.647205,19.582638 0 0 1 260.86832,531.38204 256.25562,256.25562 0 0 1 21.135144,292.5253 17.647205,19.582638 0 0 1 12.905673,276.225 17.647205,19.582638 0 0 1 21.135144,259.92471 256.25562,256.25562 0 0 1 260.86832,21.067447 17.647205,19.582638 0 0 1 276.225,10.969877 Z"
       style="display:inline;mix-blend-mode:normal;fill:#000000;fill-opacity:0.2;stroke-width:1.05833;stroke-linecap:round;filter:url(#filter41)"
       id="path28-4"
       transform="matrix(0.67175144,0.67175144,-0.67175144,0.67175144,281.51669,-94.884091)" />
    <path
       d="m 458.22487,87.115762 a 257.38665,257.38665 0 0 0 -363.999707,0 257.38665,257.38665 0 0 0 -1.4e-5,363.999718 257.38665,257.38665 0 0 0 363.999731,0 257.38665,257.38665 0 0 0 -10e-6,-363.999718 z m -3.81434,3.814343 a 16.764845,18.603506 45 0 1 3.76366,16.512635 243.44284,243.44284 0 0 1 0.58076,322.6692 16.764845,18.603506 45 0 1 -5.64479,15.88882 16.764845,18.603506 45 0 1 -16.47756,5.42124 243.44284,243.44284 0 0 1 -321.49381,-0.58839 16.764845,18.603506 45 0 1 -17.099297,-3.53247 16.764845,18.603506 45 0 1 -3.532456,-17.09928 243.44284,243.44284 0 0 1 -0.588748,-321.49347 16.764845,18.603506 45 0 1 5.421594,-16.477908 16.764845,18.603506 45 0 1 16.477897,-5.42158 243.44284,243.44284 0 0 1 321.49382,0.588396 16.764845,18.603506 45 0 1 17.09893,3.532807 z"
       style="display:inline;fill:url(#linearGradient30);stroke-width:1.00541;stroke-linecap:round"
       id="path28" />
  </g>
</svg>
